%TF.GenerationSoftware,KiCad,Pcbnew,(6.0.7)*%
%TF.CreationDate,2023-02-14T14:51:17+01:00*%
%TF.ProjectId,pulseGenerator,70756c73-6547-4656-9e65-7261746f722e,rev?*%
%TF.SameCoordinates,Original*%
%TF.FileFunction,Soldermask,Bot*%
%TF.FilePolarity,Negative*%
%FSLAX46Y46*%
G04 Gerber Fmt 4.6, Leading zero omitted, Abs format (unit mm)*
G04 Created by KiCad (PCBNEW (6.0.7)) date 2023-02-14 14:51:17*
%MOMM*%
%LPD*%
G01*
G04 APERTURE LIST*
%ADD10C,1.400000*%
%ADD11O,1.400000X1.400000*%
%ADD12R,1.700000X1.700000*%
%ADD13O,1.700000X1.700000*%
%ADD14C,1.700000*%
%ADD15R,1.524000X1.524000*%
%ADD16R,1.600000X1.600000*%
%ADD17C,1.600000*%
%ADD18C,3.200000*%
%ADD19O,1.600000X1.600000*%
G04 APERTURE END LIST*
D10*
X-575540000Y-80000000D03*
D11*
X-570460000Y-80000000D03*
D12*
X-574240500Y-76763300D03*
D13*
X-571700500Y-76763300D03*
D12*
X-520250000Y-92750000D03*
D13*
X-522790000Y-92750000D03*
D10*
X-534056900Y-95842400D03*
D11*
X-539136900Y-95842400D03*
D12*
X-570748000Y-61310000D03*
D14*
X-573288000Y-61310000D03*
X-575828000Y-61310000D03*
X-578368000Y-61310000D03*
X-580908000Y-61310000D03*
D15*
X-570378000Y-53340000D03*
X-581278000Y-53340000D03*
D10*
X-523710000Y-64150000D03*
D11*
X-528790000Y-64150000D03*
D16*
X-551000000Y-109088800D03*
D17*
X-551000000Y-106548800D03*
X-551000000Y-104008800D03*
X-551000000Y-101468800D03*
X-551000000Y-98928800D03*
X-551000000Y-96388800D03*
X-551000000Y-93848800D03*
X-551000000Y-91308800D03*
X-551000000Y-88768800D03*
X-551000000Y-86228800D03*
X-551000000Y-83688800D03*
X-551000000Y-81148800D03*
X-551000000Y-78608800D03*
X-551000000Y-76068800D03*
X-551000000Y-73528800D03*
X-551000000Y-70988800D03*
X-551000000Y-68448800D03*
X-551000000Y-65908800D03*
X-551000000Y-63368800D03*
X-551000000Y-60828800D03*
X-551000000Y-58288800D03*
X-551000000Y-55748800D03*
X-551000000Y-53208800D03*
X-551000000Y-50668800D03*
X-566240000Y-50668800D03*
X-566240000Y-53208800D03*
X-566240000Y-55748800D03*
X-566240000Y-58288800D03*
X-566240000Y-60828800D03*
X-566240000Y-63368800D03*
X-566240000Y-65908800D03*
X-566240000Y-68448800D03*
X-566240000Y-70988800D03*
X-566240000Y-73528800D03*
X-566240000Y-76068800D03*
X-566240000Y-78608800D03*
X-566240000Y-81148800D03*
X-566240000Y-83688800D03*
X-566240000Y-86228800D03*
X-566240000Y-88768800D03*
X-566240000Y-91308800D03*
X-566240000Y-93848800D03*
X-566240000Y-96388800D03*
X-566240000Y-98928800D03*
X-566240000Y-101468800D03*
X-566240000Y-104008800D03*
X-566240000Y-106548800D03*
X-566240000Y-109088800D03*
D10*
X-539124200Y-58495600D03*
D11*
X-534044200Y-58495600D03*
D18*
X-586740000Y-51308000D03*
D16*
X-502948000Y-69606000D03*
D19*
X-502948000Y-67066000D03*
X-502948000Y-64526000D03*
X-502948000Y-61986000D03*
X-502948000Y-59446000D03*
X-502948000Y-56906000D03*
X-502948000Y-54366000D03*
X-510568000Y-54366000D03*
X-510568000Y-56906000D03*
X-510568000Y-59446000D03*
X-510568000Y-61986000D03*
X-510568000Y-64526000D03*
X-510568000Y-67066000D03*
X-510568000Y-69606000D03*
D18*
X-477896000Y-51313000D03*
D10*
X-534056900Y-98754900D03*
D11*
X-539136900Y-98754900D03*
D10*
X-534056900Y-90017400D03*
D11*
X-539136900Y-90017400D03*
D12*
X-518124200Y-53420600D03*
D13*
X-515584200Y-53420600D03*
X-518124200Y-55960600D03*
X-515584200Y-55960600D03*
X-518124200Y-58500600D03*
X-515584200Y-58500600D03*
X-518124200Y-61040600D03*
X-515584200Y-61040600D03*
X-518124200Y-63580600D03*
X-515584200Y-63580600D03*
D10*
X-539136900Y-81881300D03*
D11*
X-534056900Y-81881300D03*
D18*
X-477896000Y-110241000D03*
D10*
X-534056900Y-87104900D03*
D11*
X-539136900Y-87104900D03*
D10*
X-516224000Y-81763100D03*
D11*
X-521304000Y-81763100D03*
D12*
X-545399200Y-53420600D03*
D13*
X-542859200Y-53420600D03*
X-545399200Y-55960600D03*
X-542859200Y-55960600D03*
X-545399200Y-58500600D03*
X-542859200Y-58500600D03*
X-545399200Y-61040600D03*
X-542859200Y-61040600D03*
X-545399200Y-63580600D03*
X-542859200Y-63580600D03*
D10*
X-570104800Y-72000000D03*
D11*
X-575184800Y-72000000D03*
D12*
X-570986800Y-88329100D03*
D13*
X-573526800Y-88329100D03*
D12*
X-545411900Y-70981300D03*
D13*
X-542871900Y-70981300D03*
X-545411900Y-73521300D03*
X-542871900Y-73521300D03*
X-545411900Y-76061300D03*
X-542871900Y-76061300D03*
X-545411900Y-78601300D03*
X-542871900Y-78601300D03*
X-545411900Y-81141300D03*
X-542871900Y-81141300D03*
D10*
X-539136900Y-73143800D03*
D11*
X-534056900Y-73143800D03*
D10*
X-516224000Y-73025600D03*
D11*
X-521304000Y-73025600D03*
D12*
X-580709900Y-100033400D03*
D14*
X-578169900Y-100033400D03*
X-575629900Y-100033400D03*
X-573089900Y-100033400D03*
X-570549900Y-100033400D03*
D15*
X-581079900Y-108003400D03*
X-570179900Y-108003400D03*
D10*
X-516224000Y-78850600D03*
D11*
X-521304000Y-78850600D03*
D10*
X-539136900Y-76056300D03*
D11*
X-534056900Y-76056300D03*
D10*
X-539124200Y-61408100D03*
D11*
X-534044200Y-61408100D03*
D10*
X-516224000Y-70113100D03*
D11*
X-521304000Y-70113100D03*
D10*
X-534056900Y-92929900D03*
D11*
X-539136900Y-92929900D03*
D10*
X-523710000Y-58325000D03*
D11*
X-528790000Y-58325000D03*
D12*
X-545343800Y-87854900D03*
D13*
X-542803800Y-87854900D03*
X-545343800Y-90394900D03*
X-542803800Y-90394900D03*
X-545343800Y-92934900D03*
X-542803800Y-92934900D03*
X-545343800Y-95474900D03*
X-542803800Y-95474900D03*
X-545343800Y-98014900D03*
X-542803800Y-98014900D03*
D12*
X-570954800Y-68000000D03*
D13*
X-573494800Y-68000000D03*
D16*
X-498610000Y-69347000D03*
D19*
X-498610000Y-71887000D03*
X-498610000Y-74427000D03*
X-498610000Y-76967000D03*
X-498610000Y-79507000D03*
X-498610000Y-82047000D03*
X-498610000Y-84587000D03*
X-498610000Y-87127000D03*
X-498610000Y-89667000D03*
X-498610000Y-92207000D03*
X-498610000Y-94747000D03*
X-498610000Y-97287000D03*
X-498610000Y-99827000D03*
X-498610000Y-102367000D03*
X-498610000Y-104907000D03*
X-483370000Y-104907000D03*
X-483370000Y-102367000D03*
X-483370000Y-99827000D03*
X-483370000Y-97287000D03*
X-483370000Y-94747000D03*
X-483370000Y-92207000D03*
X-483370000Y-89667000D03*
X-483370000Y-87127000D03*
X-483370000Y-84587000D03*
X-483370000Y-82047000D03*
X-483370000Y-79507000D03*
X-483370000Y-76967000D03*
X-483370000Y-74427000D03*
X-483370000Y-71887000D03*
X-483370000Y-69347000D03*
D10*
X-516224000Y-75938100D03*
D11*
X-521304000Y-75938100D03*
D12*
X-526030000Y-99590000D03*
D14*
X-523490000Y-99590000D03*
X-520950000Y-99590000D03*
X-518410000Y-99590000D03*
X-515870000Y-99590000D03*
D15*
X-526400000Y-107560000D03*
X-515500000Y-107560000D03*
D10*
X-539124200Y-52670600D03*
D11*
X-534044200Y-52670600D03*
D16*
X-502948000Y-89926000D03*
D19*
X-502948000Y-87386000D03*
X-502948000Y-84846000D03*
X-502948000Y-82306000D03*
X-502948000Y-79766000D03*
X-502948000Y-77226000D03*
X-502948000Y-74686000D03*
X-510568000Y-74686000D03*
X-510568000Y-77226000D03*
X-510568000Y-79766000D03*
X-510568000Y-82306000D03*
X-510568000Y-84846000D03*
X-510568000Y-87386000D03*
X-510568000Y-89926000D03*
D10*
X-539136900Y-70231300D03*
D11*
X-534056900Y-70231300D03*
D16*
X-502988000Y-110025000D03*
D19*
X-502988000Y-107485000D03*
X-502988000Y-104945000D03*
X-502988000Y-102405000D03*
X-502988000Y-99865000D03*
X-502988000Y-97325000D03*
X-502988000Y-94785000D03*
X-510608000Y-94785000D03*
X-510608000Y-97325000D03*
X-510608000Y-99865000D03*
X-510608000Y-102405000D03*
X-510608000Y-104945000D03*
X-510608000Y-107485000D03*
X-510608000Y-110025000D03*
D10*
X-523710000Y-61237500D03*
D11*
X-528790000Y-61237500D03*
D10*
X-523710000Y-52500000D03*
D11*
X-528790000Y-52500000D03*
D10*
X-539124200Y-64320600D03*
D11*
X-534044200Y-64320600D03*
D12*
X-487708000Y-61310000D03*
D14*
X-490248000Y-61310000D03*
X-492788000Y-61310000D03*
X-495328000Y-61310000D03*
X-497868000Y-61310000D03*
D15*
X-487338000Y-53340000D03*
X-498238000Y-53340000D03*
D18*
X-586740000Y-110236000D03*
D13*
X-532460000Y-106000000D03*
D12*
X-535000000Y-106000000D03*
D10*
X-541460000Y-109355000D03*
D11*
X-546540000Y-109355000D03*
D10*
X-539136900Y-78968800D03*
D11*
X-534056900Y-78968800D03*
D13*
X-543000000Y-106000000D03*
D12*
X-545540000Y-106000000D03*
D10*
X-523790000Y-89750000D03*
D11*
X-518710000Y-89750000D03*
D10*
X-523710000Y-55412500D03*
D11*
X-528790000Y-55412500D03*
D10*
X-539124200Y-55583100D03*
D11*
X-534044200Y-55583100D03*
D10*
X-531268000Y-109355000D03*
D11*
X-536348000Y-109355000D03*
D12*
X-528013500Y-70981300D03*
D13*
X-525473500Y-70981300D03*
X-528013500Y-73521300D03*
X-525473500Y-73521300D03*
X-528013500Y-76061300D03*
X-525473500Y-76061300D03*
X-528013500Y-78601300D03*
X-525473500Y-78601300D03*
X-528013500Y-81141300D03*
X-525473500Y-81141300D03*
D10*
X-569928000Y-92000000D03*
D11*
X-575008000Y-92000000D03*
M02*
